# 简单立方体模型
# Created for MiniPyEngine 3D Asset Testing

# 8个顶点
v -1.0 -1.0  1.0
v  1.0 -1.0  1.0
v  1.0  1.0  1.0
v -1.0  1.0  1.0
v -1.0 -1.0 -1.0
v  1.0 -1.0 -1.0
v  1.0  1.0 -1.0
v -1.0  1.0 -1.0

# 纹理坐标
vt 0.0 0.0
vt 1.0 0.0
vt 1.0 1.0
vt 0.0 1.0

# 法线向量
vn  0.0  0.0  1.0   # 前面
vn  0.0  0.0 -1.0   # 后面
vn  1.0  0.0  0.0   # 右面
vn -1.0  0.0  0.0   # 左面
vn  0.0  1.0  0.0   # 上面
vn  0.0 -1.0  0.0   # 下面

# 12个三角面 (每个面2个三角形)
# 前面
f 1/1/1 2/2/1 3/3/1
f 1/1/1 3/3/1 4/4/1

# 后面
f 6/2/2 5/1/2 8/4/2
f 6/2/2 8/4/2 7/3/2

# 右面
f 2/1/3 6/2/3 7/3/3
f 2/1/3 7/3/3 3/4/3

# 左面
f 5/2/4 1/1/4 4/4/4
f 5/2/4 4/4/4 8/3/4

# 上面
f 4/1/5 3/2/5 7/3/5
f 4/1/5 7/3/5 8/4/5

# 下面
f 5/4/6 6/3/6 2/2/6
f 5/4/6 2/2/6 1/1/6 